# xmcd CD database file
#
# Track frame offsets:
#	150
#	14350
#	27863
#	43572
#	63927
#	88603
#	107841
#	124795
#	144557
#	163037
#	179766
#	200986
#	217793
#	243392
#	281772
#	296226
#	311602
#
# Disc length: 4415 seconds
#
# Revision: 0
# Processed by: cddbd v1.5.1PL2 Copyright (c) Steve Scherf et al.
# Submitted via: CDex 1.51
#
DISCID=03113d11
DTITLE=Various Artist - Secret Moments
DYEAR=1998
DGENRE=New Age
TTITLE0=Secret Garden/Nocturne
TTITLE1=Eimear Quinn/The Voice
TTITLE2=Butterfly Chasing/Moonswimming
TTITLE3=Nicholas Gunn/Forever
TTITLE4=Avalone/O-he-dojè
TTITLE5=Khaled/Aicha
TTITLE6=B-Tribe/Desperada
TTITLE7=Chris Hinze/Yellow River
TTITLE8=Marcome/Yeku
TTITLE9=Aschera/Whales of Atlantis
TTITLE10=Hasyia/Chakra
TTITLE11=Oliver Shanti and Friends/Water-Four Circles of Life
TTITLE12=Dead Can Dance/Nierika
TTITLE13=Delerium/Lamentation
TTITLE14=Marcator/Necromantra
TTITLE15=Mistik Dreams/A Taste of Africa
TTITLE16=Vyanab/Grand Canyon
EXTD=YEAR: 1998
EXTT0=
EXTT1=
EXTT2=
EXTT3=
EXTT4=
EXTT5=
EXTT6=
EXTT7=
EXTT8=
EXTT9=
EXTT10=
EXTT11=
EXTT12=
EXTT13=
EXTT14=
EXTT15=
EXTT16=
PLAYORDER=
